#!OML:ASF H:\Pregnant\Project 1\Capture day 1\Session 1\femalepreg.ASF
:FULLY-SPECIFIED
:DEGREES
459
root 17.6806 15.5444 -21.0681 198.097 -29.4557 -178.762
lowerback -12.5247 2.63024 -1.8293
upperback -3.98539 3.33761 -7.5929
thorax 3.1756 1.35723 -6.49236
lowerneck -7.28889 17.7719 14.7361
upperneck 21.181 24.0115 -9.97328
head 11.0627 11.1357 -2.4514
rclavicle -4.25399e-014 -4.77083e-014
rhumerus -64.8657 15.1487 -95.8996
rradius 60.6185
rwrist -17.773
rhand -14.0692 -25.4654
rfingers 7.12502
rthumb 12.0624 -55.0977
lclavicle -4.25399e-014 -4.77083e-014
lhumerus -29.7089 -28.7487 85.3225
lradius 44.9968
lwrist -6.80845
lhand -23.1546 -20.4786
lfingers 7.12502
lthumb 3.29376 9.47571
rfemur -53.2597 8.65832 14.7647
rtibia 71.1561
rfoot -9.21542 -10.7767
rtoes -18.4081
lfemur -34.7336 -9.91868 -29.0727
ltibia 37.2306
lfoot -14.51 -3.18091
ltoes -3.42277
460
root 17.5954 15.5524 -21.1968 198.179 -30.7039 -178.535
lowerback -12.7012 2.43181 -1.59553
upperback -3.98272 3.0791 -7.22058
thorax 3.24161 1.24591 -6.25927
lowerneck -7.38586 17.697 14.8001
upperneck 21.213 23.9585 -10.1955
head 11.1267 11.0906 -2.53295
rclavicle 2.38542e-015 7.95139e-015
rhumerus -65.4789 14.5916 -95.3885
rradius 60.5017
rwrist -18.109
rhand -14.036 -25.4298
rfingers 7.12502
rthumb 12.0944 -55.0602
lclavicle 2.38542e-015 7.95139e-015
lhumerus -30.0527 -29.4827 85.8899
lradius 46.9514
lwrist -6.07018
lhand -23.7143 -20.808
lfingers 7.12502
lthumb 2.75326 9.154
rfemur -54.1593 8.94047 14.6225
rtibia 69.6583
rfoot -9.52199 -11.6549
rtoes -18.4117
lfemur -34.2716 -10.7306 -28.7081
ltibia 37.1058
lfoot -14.706 -3.52095
ltoes -3.37086
461
root 17.5088 15.5624 -21.3254 198.206 -31.9411 -178.304
lowerback -12.8244 2.2375 -1.34725
upperback -3.98371 2.81778 -6.85208
thorax 3.27653 1.1323 -6.04195
lowerneck -7.42415 17.6199 14.9289
upperneck 21.2165 23.9015 -10.4407
head 11.1811 11.0499 -2.63651
rclavicle -2.56432e-014 5.40694e-014
rhumerus -66.0692 14.0738 -94.9333
rradius 60.4011
rwrist -18.4362
rhand -14.0506 -25.4366
rfingers 7.12502
rthumb 12.0803 -55.0678
lclavicle -2.56432e-014 5.40694e-014
lhumerus -30.4076 -30.0837 86.4237
lradius 48.813
lwrist -4.4363
lhand -24.1258 -20.815
lfingers 7.12502
lthumb 2.35591 9.15177
rfemur -54.9379 9.26298 14.4286
rtibia 68.0055
rfoot -9.78743 -12.5744
rtoes -18.3692
lfemur -33.7126 -11.4621 -28.3607
ltibia 36.8997
lfoot -14.8801 -3.9271
ltoes -3.25634
462
root 17.4196 15.5743 -21.4527 198.17 -33.1108 -178.062
lowerback -12.8856 2.06725 -1.08574
upperback -3.98019 2.58294 -6.47931
thorax 3.28628 1.03193 -5.82563
lowerneck -7.45188 17.5439 15.0735
upperneck 21.2047 23.8465 -10.6954
head 11.2316 11.0117 -2.74641
rclavicle 3.83654e-014 -4.45278e-014
rhumerus -66.593 13.634 -94.498
rradius 60.303
rwrist -18.7574
rhand -14.0896 -25.5063
rfingers 7.12502
rthumb 12.0427 -55.1398
lclavicle 3.83654e-014 -4.45278e-014
lhumerus -30.7173 -30.5648 86.9467
lradius 50.5468
lwrist -2.13129
lhand -24.4959 -20.5383
lfingers 7.12502
lthumb 1.99842 9.43205
rfemur -55.6104 9.66779 14.1625
rtibia 66.2016
rfoot -10.0059 -13.4797
rtoes -18.2105
lfemur -33.0505 -12.0977 -28.0399
ltibia 36.6106
lfoot -15.0362 -4.35588
ltoes -3.09128
463
root 17.3291 15.5879 -21.5788 198.098 -34.2153 -177.821
lowerback -12.8946 1.91416 -0.838489
upperback -3.97043 2.36961 -6.09842
thorax 3.27617 0.942068 -5.59064
lowerneck -7.51048 17.4786 15.2095
upperneck 21.1894 23.804 -10.942
head 11.2857 10.9786 -2.84782
rclavicle 9.14409e-015 7.15625e-014
rhumerus -67.0068 13.2876 -94.0706
rradius 60.185
rwrist -19.0577
rhand -14.1773 -25.5951
rfingers 7.12502
rthumb 11.9581 -55.2336
lclavicle 9.14409e-015 7.15625e-014
lhumerus -30.97 -30.9249 87.457
lradius 52.1631
lwrist 0.731444
lhand -24.8448 -20.0677
lfingers 7.12502
lthumb 1.66147 9.90563
rfemur -56.2083 10.1597 13.8069
rtibia 64.2594
rfoot -10.1743 -14.3253
rtoes -18.0001
lfemur -32.3081 -12.6326 -27.7487
ltibia 36.2303
lfoot -15.163 -4.82542
ltoes -2.90895
464
root 17.2367 15.6035 -21.7034 198.004 -35.2399 -177.589
lowerback -12.8577 1.79229 -0.602671
upperback -3.96103 2.19608 -5.71539
thorax 3.24465 0.871331 -5.34184
lowerneck -7.6039 17.411 15.3256
upperneck 21.1832 23.7553 -11.1724
head 11.3437 10.9413 -2.94017
rclavicle -7.5737e-014 -4.6118e-014
rhumerus -67.3109 13.0418 -93.6455
rradius 60.0407
rwrist -19.3474
rhand -14.2931 -25.7102
rfingers 7.12502
rthumb 11.8465 -55.3551
lclavicle -7.5737e-014 -4.6118e-014
lhumerus -31.1624 -31.1978 87.972
lradius 53.6609
lwrist 4.10591
lhand -25.0715 -19.4833
lfingers 7.12502
lthumb 1.44249 10.4916
rfemur -56.746 10.7421 13.3417
rtibia 62.189
rfoot -10.3041 -15.0456
rtoes -17.7403
lfemur -31.4975 -13.0657 -27.4977
ltibia 35.767
lfoot -15.2377 -5.34899
ltoes -2.59552
465
root 17.1434 15.6206 -21.8269 197.921 -36.2375 -177.392
lowerback -12.7913 1.68499 -0.39222
upperback -3.95119 2.04224 -5.34016
thorax 3.19951 0.809148 -5.08496
lowerneck -7.74545 17.3412 15.4113
upperneck 21.1892 23.6961 -11.3663
head 11.4041 10.8984 -3.0151
rclavicle 1.25036e-013 -3.65764e-014
rhumerus -67.5078 12.8472 -93.2203
rradius 59.869
rwrist -19.565
rhand -14.4133 -25.7915
rfingers 7.12502
rthumb 11.7306 -55.443
lclavicle 1.25036e-013 -3.65764e-014
lhumerus -31.3289 -31.4259 88.4748
lradius 55.0959
lwrist 7.97459
lhand -25.1412 -18.8686
lfingers 7.12502
lthumb 1.37522 11.1067
rfemur -57.239 11.368 12.7529
rtibia 60.0155
rfoot -10.4012 -15.6023
rtoes -17.6367
lfemur -30.6429 -13.4243 -27.2954
ltibia 35.2275
lfoot -15.2694 -5.93889
ltoes -2.24156
466
root 17.0499 15.6394 -21.949 197.869 -37.2165 -177.213
lowerback -12.7243 1.5836 -0.199551
upperback -3.96032 1.89391 -4.96546
thorax 3.13484 0.747461 -4.81856
lowerneck -7.86227 17.2621 15.5225
upperneck 21.1928 23.6235 -11.5684
head 11.4616 10.8518 -3.10135
rclavicle -4.53229e-014 -1.74931e-014
rhumerus -67.6274 12.6934 -92.7978
rradius 59.6707
rwrist -19.6665
rhand -14.5264 -25.8541
rfingers 7.12502
rthumb 11.6215 -55.5119
lclavicle -4.53229e-014 -1.74931e-014
lhumerus -31.5571 -31.6031 88.9477
lradius 56.5489
lwrist 12.3067
lhand -25.0025 -18.2115
lfingers 7.12502
lthumb 1.50919 11.7629
rfemur -57.7251 12.0446 12.0404
rtibia 57.758
rfoot -10.4869 -15.9541
rtoes -17.6684
lfemur -29.7886 -13.7157 -27.1144
ltibia 34.6285
lfoot -15.2421 -6.58901
ltoes -1.96809
467
root 16.9561 15.6588 -22.0702 197.886 -38.2305 -177.095
lowerback -12.6785 1.47619 -0.0346475
upperback -3.98558 1.7369 -4.60947
thorax 3.06474 0.678843 -4.55831
lowerneck -7.96011 17.172 15.6354
upperneck 21.1905 23.5297 -11.746
head 11.5066 10.7996 -3.1863
rclavicle 1.74931e-014 -1.59028e-015
rhumerus -67.6962 12.5441 -92.3929
rradius 59.4643
rwrist -19.673
rhand -14.6217 -25.8755
rfingers 7.12502
rthumb 11.5296 -55.5384
lclavicle 1.74931e-014 -1.59028e-015
lhumerus -31.8313 -31.7491 89.3772
lradius 58.0207
lwrist 17.018
lhand -24.6335 -17.467
lfingers 7.12502
lthumb 1.86555 12.5046
rfemur -58.2186 12.7102 11.1773
rtibia 55.4569
rfoot -10.5931 -16.0889
rtoes -17.9023
lfemur -28.9555 -13.9769 -26.9753
ltibia 33.9826
lfoot -15.1537 -7.32174
ltoes -1.64562
468
root 16.8606 15.6779 -22.1899 197.947 -39.2378 -177.003
lowerback -12.6597 1.38494 0.154789
upperback -4.02264 1.59582 -4.27875
thorax 3.00077 0.616221 -4.33697
lowerneck -8.0442 17.0745 15.752
upperneck 21.1795 23.4178 -11.895
head 11.5389 10.744 -3.26757
rclavicle 4.33351e-014 3.49861e-014
rhumerus -67.7141 12.3558 -91.9954
rradius 59.2526
rwrist -19.5496
rhand -14.7055 -25.8523
rfingers 7.12502
rthumb 11.4488 -55.5197
lclavicle 4.33351e-014 3.49861e-014
lhumerus -32.1557 -31.8588 89.7255
lradius 59.539
lwrist 21.9708
lhand -24.0554 -16.6084
lfingers 7.12502
lthumb 2.4239 13.3576
rfemur -58.7284 13.4022 10.175
rtibia 53.1417
rfoot -10.7522 -15.976
rtoes -18.2829
lfemur -28.1471 -14.2035 -26.8594
ltibia 33.3185
lfoot -15.0176 -8.07589
ltoes -1.39118
469
root 16.7643 15.6956 -22.3088 198.055 -40.2918 -176.965
lowerback -12.6523 1.3108 0.38055
upperback -4.069 1.47095 -4.01129
thorax 2.93767 0.559318 -4.20141
lowerneck -8.11186 16.9564 15.9335
upperneck 21.1632 23.2607 -12.0188
head 11.5639 10.6771 -3.35938
rclavicle -6.67916e-014 1.06549e-013
rhumerus -67.6979 12.0659 -91.6495
rradius 59.0399
rwrist -19.3492
rhand -14.7941 -25.8019
rfingers 7.12502
rthumb 11.3633 -55.474
lclavicle -6.67916e-014 1.06549e-013
lhumerus -32.5072 -31.9825 89.9702
lradius 61.0606
lwrist 26.9991
lhand -23.2665 -15.6097
lfingers 7.12502
lthumb 3.18578 14.3463
rfemur -59.2381 14.0953 9.01974
rtibia 50.8614
rfoot -10.9926 -15.6847
rtoes -18.844
lfemur -27.3687 -14.4278 -26.7749
ltibia 32.6668
lfoot -14.8335 -8.8787
ltoes -1.12263
470
root 16.6666 15.7109 -22.426 198.205 -41.3847 -176.967
lowerback -12.6641 1.23535 0.62113
upperback -4.11655 1.34152 -3.75413
thorax 2.88417 0.499238 -4.08607
lowerneck -8.17806 16.8335 16.1011
upperneck 21.1432 23.0958 -12.1327
head 11.5821 10.6071 -3.44846
rclavicle -1.33186e-014 -7.95139e-015
rhumerus -67.6306 11.7637 -91.2972
rradius 58.8228
rwrist -19.1061
rhand -14.916 -25.7303
rfingers 7.12502
rthumb 11.2458 -55.4089
lclavicle -1.33186e-014 -7.95139e-015
lhumerus -32.8504 -32.0204 90.145
lradius 62.5547
lwrist 31.9011
lhand -22.3869 -14.4604
lfingers 7.12502
lthumb 4.03519 15.4811
rfemur -59.7604 14.796 7.72066
rtibia 48.6571
rfoot -11.3181 -15.2926
rtoes -19.571
lfemur -26.6491 -14.6629 -26.7069
ltibia 32.0713
lfoot -14.6113 -9.707
ltoes -0.782859
471
root 16.5681 15.7225 -22.5419 198.373 -42.5058 -176.984
lowerback -12.6836 1.20241 0.921229
upperback -4.13848 1.26427 -3.52417
thorax 2.8676 0.466055 -4.02561
lowerneck -8.38421 16.6923 16.1614
upperneck 21.1496 22.8931 -12.1815
head 11.6062 10.5121 -3.4989
rclavicle 7.55382e-015 -4.92986e-014
rhumerus -67.4527 11.3655 -90.8988
rradius 58.5947
rwrist -18.874
rhand -15.0929 -25.6582
rfingers 7.12502
rthumb 11.0751 -55.346
lclavicle 7.55382e-015 -4.92986e-014
lhumerus -33.0866 -32.0828 90.2565
lradius 63.9641
lwrist 36.508
lhand -21.5159 -13.2348
lfingers 7.12502
lthumb 4.87625 16.689
rfemur -60.3008 15.5371 6.29157
rtibia 46.5776
rfoot -11.7084 -14.8917
rtoes -20.414
lfemur -26.0004 -14.9057 -26.6369
ltibia 31.5725
lfoot -14.3667 -10.53
ltoes -0.44609
472
root 16.4686 15.7304 -22.6566 198.554 -43.6488 -177.011
lowerback -12.7331 1.19132 1.23798
upperback -4.12958 1.21601 -3.27763
thorax 2.90159 0.449111 -3.9527
lowerneck -8.70627 16.5419 16.0911
upperneck 21.1752 22.6792 -12.1959
head 11.6349 10.3998 -3.51484
rclavicle -6.65929e-014 7.95139e-015
rhumerus -67.1681 10.969 -90.4364
rradius 58.3609
rwrist -18.711
rhand -15.3294 -25.6206
rfingers 7.12502
rthumb 10.847 -55.3205
lclavicle -6.65929e-014 7.95139e-015
lhumerus -33.1901 -32.079 90.3469
lradius 65.2303
lwrist 40.6188
lhand -20.7069 -11.9292
lfingers 7.12502
lthumb 5.65736 17.9753
rfemur -60.8651 16.3388 4.7308
rtibia 44.6685
rfoot -12.1529 -14.5742
rtoes -21.244
lfemur -25.4364 -15.1549 -26.5593
ltibia 31.2034
lfoot -14.0934 -11.3604
ltoes 0.0182874
473
root 16.3683 15.7342 -22.7705 198.725 -44.8135 -177.041
lowerback -12.7846 1.22365 1.59984
upperback -4.09442 1.22133 -3.03269
thorax 2.96908 0.460378 -3.89905
lowerneck -9.1351 16.3656 15.8782
upperneck 21.2202 22.4296 -12.1579
head 11.6593 10.2607 -3.49434
rclavicle 3.68746e-014 5.24792e-014
rhumerus -66.7831 10.4803 -89.889
rradius 58.1082
rwrist -18.6071
rhand -15.6 -25.6411
rfingers 7.12502
rthumb 10.586 -55.3545
lclavicle 3.68746e-014 5.24792e-014
lhumerus -33.2897 -32.1357 90.4071
lradius 66.4677
lwrist 44.1443
lhand -20.0123 -10.6252
lfingers 7.12502
lthumb 6.32795 19.2603
rfemur -61.4344 17.1807 3.08048
rtibia 42.9719
rfoot -12.6411 -14.362
rtoes -22.0257
lfemur -24.9439 -15.4112 -26.4716
ltibia 30.9826
lfoot -13.8254 -12.1841
ltoes 0.480091
